<svg width="419" height="106" viewBox="0 0 419 106" fill="none" xmlns="http://www.w3.org/2000/svg">
<g clip-path="url(#clip0_59_5)">
<path d="M63.4437 77.1162C62.5483 77.0202 61.1237 76.7082 60.6494 76.5042L60.4177 76.4037L60.3861 75.256C60.3684 74.6243 60.3484 73.7802 60.3414 73.3797L60.3283 72.6516L60.4674 72.5852C60.5765 72.5412 60.6922 72.5156 60.8097 72.5094L61.0136 72.4998L61.187 72.927C61.8639 74.5932 62.6583 75.4896 63.695 75.765C64.0909 75.869 64.8326 75.87 65.1255 75.765C65.9457 75.4756 66.3958 74.8544 66.3994 74.0063C66.4044 73.0013 65.8517 72.5184 63.7648 71.7034C62.4719 71.1983 62.0212 70.9381 61.484 70.3888C60.9046 69.7959 60.6267 69.1205 60.5745 68.1809C60.5111 67.0448 60.8669 66.087 61.6548 65.271C62.4428 64.4549 63.4769 64.0047 64.8789 63.8765C66.1134 63.764 68.0084 64.0273 68.9993 64.4464L69.1807 64.5232L69.2128 65.5463C69.231 66.1091 69.249 66.8634 69.254 67.2226L69.262 67.8759L69.0188 67.9663C68.6345 68.109 68.6093 68.0909 68.3953 67.5241C67.7953 65.9353 67.0988 65.183 66.0129 64.9534C65.3512 64.8137 64.7984 64.9639 64.3964 65.3936C64.0833 65.7287 63.9607 66.0262 63.9311 66.5257C63.8989 67.0674 63.9959 67.3598 64.3266 67.7217C64.7346 68.1678 65.4024 68.5532 66.733 69.109C68.3626 69.7899 69.1404 70.3682 69.563 71.2134C69.8374 71.7622 69.9148 72.2004 69.8877 73.044C69.867 73.6771 69.847 73.8073 69.7027 74.2324C69.233 75.6182 68.1731 76.5308 66.537 76.9584C65.9843 77.1037 65.9029 77.1092 64.8 77.1227C64.1648 77.1317 63.5542 77.1277 63.4437 77.1162Z" fill="white"/>
<path d="M0.0668315 76.8143C0.0251246 76.7961 0.00401994 76.672 0.00401994 76.4404C0.00401994 76.0238 -0.0226122 76.0424 0.782883 75.8931C1.40045 75.7786 1.62154 75.661 1.8944 75.3038C2.42302 74.6103 2.53759 73.2751 2.53859 67.7774C2.53859 62.6143 2.4381 61.5284 1.89339 60.7304C1.65069 60.3787 1.24015 60.1842 0.556762 60.1023L0.0291446 60.039L0.0145722 59.627L0 59.2154L0.16532 59.1858C0.256271 59.1697 3.45061 59.1627 7.26353 59.1707L14.1979 59.1848L14.2306 59.3858C14.2487 59.4963 14.2778 60.6304 14.2959 61.9058L14.3286 64.2243L13.9693 64.3343C13.4311 64.4981 13.4341 64.5001 13.1919 63.8595C12.5975 62.2862 11.9156 61.3797 10.9809 60.9219C10.3373 60.6063 10.0398 60.5701 8.22279 60.5701H6.64395L6.61682 60.8339C6.56657 61.3289 6.48517 64.5112 6.48567 66.0096V67.5L6.95048 67.4975C7.20625 67.4975 7.71025 67.4769 8.07053 67.4558C8.61272 67.4231 8.77402 67.3945 9.00014 67.2895C9.55739 67.0317 9.93627 66.4639 10.1684 65.5398L10.288 65.0629L10.6986 65.0484L11.1086 65.0338V71.0727L10.698 71.0582L10.288 71.0436L10.1714 70.5662C9.95291 69.6693 9.53179 69.0271 9.01119 68.797C8.77101 68.6909 8.17606 68.6301 7.02585 68.5959L6.48567 68.5794V69.711C6.48567 70.9471 6.5535 72.6189 6.64043 73.5264C6.76204 74.7917 7.08514 75.4906 7.66602 75.7434C7.77657 75.7936 8.12732 75.8701 8.44539 75.9178C8.76347 75.9655 9.06295 76.0248 9.1112 76.0499C9.23382 76.1133 9.24086 76.7684 9.11974 76.8147C9.02476 76.8514 0.156778 76.8489 0.066329 76.8122L0.0668315 76.8143Z" fill="white"/>
<path d="M24.8383 76.8048C24.7926 76.7756 24.7775 76.6595 24.788 76.4159L24.8031 76.0686L24.979 76.0314C25.0755 76.0108 25.2836 75.9696 25.4408 75.9404C25.9272 75.8495 26.2066 75.5852 26.3644 75.0681C26.4925 74.6465 26.5489 73.2983 26.5518 70.5914C26.5554 67.2805 26.4865 66.4986 26.1499 66.0554C25.9685 65.8152 25.8373 65.7469 25.3961 65.6625C25.179 65.6208 24.9504 65.5761 24.8881 65.562C24.7876 65.5409 24.7751 65.5082 24.7751 65.2605C24.7751 65.0128 24.79 64.9776 24.8881 64.9374C25.0388 64.8756 30.0166 63.8822 30.1753 63.8822H30.3015L30.2773 64.6233C30.2638 65.0309 30.2421 65.6248 30.2296 65.9424L30.2065 66.5202L30.3868 66.1951C30.9642 65.154 31.6114 64.5078 32.4722 64.1133C32.945 63.8967 33.2601 63.8319 33.844 63.8319C34.5364 63.8319 35.2289 64.058 35.2289 64.2842C35.2289 64.4349 34.0088 67.6599 33.9415 67.6855C33.9089 67.6981 33.6707 67.6072 33.4124 67.4845C32.8732 67.2262 32.3682 67.0996 31.8772 67.1011C31.2662 67.1011 30.5839 67.3272 30.3145 67.6161C30.199 67.7398 30.1984 67.7473 30.1698 69.5935C30.1416 71.422 30.2024 73.6522 30.3055 74.5491C30.3929 75.3129 30.5958 75.6892 31.0155 75.8646C31.1557 75.9219 32.0411 76.0425 32.33 76.0425C32.3521 76.0425 32.3632 76.2178 32.3551 76.4319L32.3406 76.8213L28.6221 76.8334C26.5769 76.8399 24.874 76.8264 24.8383 76.8038V76.8048Z" fill="white"/>
<path d="M24.7802 69.4365C24.5174 67.2065 23.5742 65.5744 22.0114 64.6558C20.2773 63.6353 17.6422 63.576 15.77 64.5161C14.4198 65.1945 13.3143 66.502 12.8224 68.0025C12.3164 69.5521 12.3164 71.5857 12.8224 73.1675C13.147 74.1806 13.5872 74.9202 14.2661 75.5926C15.0796 76.3966 16.1454 76.9142 17.3639 77.092C17.8001 77.1554 19.1764 77.1568 19.6252 77.092C19.9032 77.0496 20.1786 76.9907 20.4497 76.9156C22.6582 76.276 24.1681 74.5785 24.6837 72.149C24.8083 71.5555 24.8606 70.1174 24.7802 69.4365ZM20.2161 75.1519C19.9824 75.5996 19.5432 76.0111 19.1875 76.1172C17.8141 76.5247 16.8317 75.2167 16.4498 72.4746C16.3268 71.5887 16.3272 69.1752 16.4498 68.1622C16.7187 65.9583 17.3991 64.8387 18.4714 64.8372C18.9542 64.8372 19.2252 64.9548 19.6005 65.3352C20.4999 66.2397 20.9265 67.9713 20.9195 70.6907C20.9155 72.8615 20.701 74.2278 20.2161 75.1519Z" fill="white"/>
<path d="M47.2986 68.3803C46.7961 66.0859 45.3655 64.5016 43.4293 64.1011C43.1329 64.0398 42.8655 64.0272 42.2886 64.0473C41.4219 64.0775 40.825 64.2076 40.1782 64.5066C39.9632 64.6071 39.7762 64.687 39.7616 64.687C39.7471 64.687 39.7491 63.3755 39.7661 61.7726C39.7903 59.5138 39.7838 58.8581 39.737 58.8581C39.5732 58.8571 34.4412 59.8334 34.385 59.8782C34.3433 59.9113 34.3252 60.0199 34.3347 60.1842C34.3513 60.4696 34.3176 60.447 34.9433 60.5862C35.1317 60.6284 35.3518 60.7103 35.4331 60.7681C35.6417 60.9188 35.8156 61.2384 35.9356 61.7002C36.0306 62.064 36.0432 62.3243 36.0864 64.786C36.1311 67.2985 36.1221 69.8828 36.0532 74.6158L36.0246 76.582L36.3924 76.6654C36.9246 76.7865 38.4481 77.0403 38.9466 77.0905C39.6777 77.1649 41.3822 77.1544 41.9248 77.0729C44.2816 76.7177 46.0579 75.3509 46.8859 73.254C47.1307 72.5935 47.2993 71.9071 47.3884 71.2083C47.4774 70.4646 47.4292 68.9788 47.2986 68.3803ZM43.4796 71.747C43.2539 73.5023 42.6801 74.9183 41.9173 75.6047C41.6128 75.8785 41.3289 76.0238 40.9626 76.0931C40.6978 76.1433 40.6184 76.1433 40.1395 76.1067C39.9386 76.0911 39.8913 76.0679 39.8501 75.9599C39.7858 75.7911 39.7093 69.9013 39.7405 67.5487L39.7651 65.7121L40.0983 65.6141C40.3548 65.5443 40.62 65.5113 40.8858 65.5161C41.3108 65.5161 41.3661 65.5287 41.7243 65.7056C42.5882 66.1327 43.1816 67.1934 43.456 68.8069C43.5565 69.4034 43.569 71.0325 43.477 71.747H43.4796Z" fill="white"/>
<path d="M59.6016 68.9332C59.3694 66.675 58.4554 65.1203 56.9017 64.3419C55.5213 63.65 53.3893 63.7002 51.83 64.46C50.3527 65.1806 49.3356 66.382 48.7683 68.078C48.4723 68.9614 48.3794 69.6723 48.409 70.8175C48.4281 71.5417 48.4593 71.9155 48.5362 72.2501C49.1186 74.85 50.9014 76.6178 53.3942 77.0675C53.943 77.168 55.1891 77.168 55.7439 77.0715C56.5359 76.9328 57.4493 76.5806 58.0252 76.1917C58.7287 75.7168 59.4493 75.0028 59.4493 74.7812C59.4493 74.646 59.2076 74.335 59.1026 74.335C59.0568 74.335 58.8614 74.4355 58.6689 74.5616C57.981 75.0058 57.3237 75.1887 56.4077 75.1887C55.1464 75.1887 54.3475 74.8741 53.5435 74.0631C53.1878 73.7038 53.041 73.5104 52.8571 73.1541C52.4524 72.3716 52.2336 71.4714 52.2008 70.4537L52.1868 70.0141L55.9052 70.0015L59.6237 69.9884L59.6402 69.7371C59.6437 69.4686 59.6307 69.2002 59.6016 68.9332ZM54.9731 68.8769C54.4922 68.8935 53.6746 68.9141 53.1566 68.9226L52.2144 68.9377V68.7342C52.2262 68.5153 52.2499 68.2972 52.2853 68.081C52.5993 66.0574 53.3541 64.8429 54.2987 64.8419C55.168 64.8419 55.7057 66.0373 55.8148 68.2272L55.8464 68.8483L54.9731 68.8769Z" fill="white"/>
</g>
<g clip-path="url(#clip1_59_5)">
<path d="M128.941 63.0431V72.9129C128.941 73.4626 129.05 74.007 129.26 74.5148C129.47 75.0226 129.779 75.4841 130.167 75.8728C130.556 76.2615 131.018 76.5698 131.525 76.7802C132.033 76.9906 132.577 77.0988 133.127 77.0988C133.677 77.0988 134.221 76.9906 134.729 76.7802C135.237 76.5698 135.698 76.2615 136.087 75.8728C136.476 75.4841 136.784 75.0226 136.994 74.5148C137.205 74.007 137.313 73.4626 137.313 72.9129V63.0431C137.313 61.9329 136.872 60.8682 136.087 60.0832C135.302 59.2982 134.237 58.8572 133.127 58.8572C132.017 58.8572 130.952 59.2982 130.167 60.0832C129.382 60.8682 128.941 61.9329 128.941 63.0431ZM131.938 72.9129V63.0431C131.935 62.8935 131.963 62.7449 132.018 62.606C132.074 62.4671 132.157 62.3407 132.262 62.234C132.367 62.1274 132.492 62.0428 132.63 61.985C132.768 61.9272 132.916 61.8974 133.065 61.8974H133.171C133.317 61.8927 133.462 61.9168 133.599 61.9683C133.735 62.0198 133.86 62.0977 133.967 62.1976C134.073 62.2974 134.159 62.4173 134.219 62.5502C134.279 62.6832 134.312 62.8267 134.317 62.9726V72.9129C134.312 73.2154 134.19 73.5041 133.976 73.718C133.762 73.9318 133.474 74.054 133.171 74.0585C133.015 74.0645 132.859 74.0394 132.712 73.985C132.566 73.9306 132.431 73.8479 132.317 73.7415C132.202 73.6351 132.11 73.5071 132.045 73.365C131.98 73.2228 131.943 73.0692 131.938 72.9129ZM161.459 59.0775H152.999V62.0737H155.731V76.7904H158.727V62.0737H161.459V59.0775ZM170.271 59.0775V72.9129C170.271 73.2168 170.151 73.5081 169.936 73.723C169.721 73.9379 169.43 74.0585 169.126 74.0585C168.822 74.0585 168.531 73.9379 168.316 73.723C168.101 73.5081 167.98 73.2168 167.98 72.9129V59.0775H164.896V72.9129C164.896 74.0348 165.341 75.1107 166.135 75.9039C166.928 76.6973 168.004 77.1429 169.126 77.1429C170.248 77.1429 171.324 76.6973 172.117 75.9039C172.91 75.1107 173.356 74.0348 173.356 72.9129V59.0775H170.271ZM197.678 62.0737V59.0775H190.276V76.7904H197.678V73.7941H193.272V69.2117H196.092V66.2155H193.272V62.0737H197.678ZM150.179 76.7904H147.007L144.804 68.4186C145.353 68.3099 145.848 68.0126 146.202 67.5783C146.556 67.1439 146.747 66.5996 146.742 66.0393V63.3074C146.746 63.1489 146.718 62.9912 146.661 62.8434C146.603 62.6955 146.517 62.5605 146.407 62.4459C146.298 62.3314 146.167 62.2395 146.021 62.1756C145.876 62.1118 145.72 62.0771 145.561 62.0737H144.363V76.7904H141.367V59.0775H145.509C146.602 59.0699 147.656 59.4891 148.446 60.246C149.236 61.0029 149.7 62.0379 149.738 63.1312V65.9512C149.778 66.6829 149.648 67.4139 149.357 68.0866C149.066 68.7593 148.624 69.3556 148.064 69.8286L150.179 76.7904ZM183.578 59.0775V68.7711L180.494 59.0775H177.409V76.7904H180.494V68.1543L183.314 76.7904H186.662V59.0775H183.578ZM118.807 59.3419V77.0547H121.98V69.4761H124.888V66.4799H121.98V62.3381H126.562V59.3419H118.807Z" fill="white"/>
</g>
<g clip-path="url(#clip2_59_5)">
<path d="M269.21 56.5715V64.1905H261.591V79.4286H253.972V64.1905H246.353V56.5715H269.21Z" fill="white"/>
<path d="M292.066 56.5715H276.828V64.1905H292.066V56.5715Z" fill="white"/>
<path d="M292.068 71.8096V79.4287H269.211V64.1906H276.83V71.8096H292.068Z" fill="white"/>
</g>
<g clip-path="url(#clip3_59_5)">
<path d="M349.422 54.3744V54.9223L349.93 55.0432C350.735 55.2366 350.832 55.712 351.146 57.2027L351.952 61.4088L349.688 73.6808L346.578 58.2582C346.223 56.5661 346.11 55.3091 347.383 55.0351L347.972 54.9143V54.3744H340.607V54.9223L341.356 55.0996C342.106 55.293 342.42 55.6475 342.927 57.9681L347.923 81.6176H349.212L352.556 63.7536L356.263 81.6176H357.286L362.121 58.7014C362.669 56.0665 362.927 55.3172 363.853 55.0754L364.603 54.882V54.3744H359.14V54.9223L359.945 55.0835C361.122 55.3172 361.404 56.0665 360.848 59.1123L357.907 73.6969L354.925 58.2744C354.603 56.7434 354.41 55.3252 355.731 55.0513L356.593 54.8901V54.3422L349.422 54.3744ZM384.425 54.4469V55.0029L385.408 55.2366C386.27 55.43 386.625 55.7442 386.625 56.8481V75.9288C386.625 78.0561 386.625 80.8441 384.425 80.8441C383.168 80.8441 382.185 79.7482 382.257 78.9989C382.338 77.7822 384.465 77.8547 384.578 75.8886C384.624 75.642 384.618 75.3887 384.56 75.1446C384.502 74.9007 384.394 74.6715 384.242 74.4719C384.09 74.2723 383.898 74.1066 383.678 73.9857C383.459 73.8647 383.216 73.791 382.966 73.7694C381.75 73.6083 380.251 74.6315 380.211 76.6783C380.211 79.3131 381.903 81.7143 384.852 81.7143C388.115 81.7143 390.251 79.5065 390.251 75.2681V56.8884C390.251 55.7845 390.525 55.43 391.306 55.2769L392.176 54.9868V54.4389L384.425 54.4469ZM371.17 54.2938C367.826 54.2938 365.94 57.0899 365.94 60.74C365.94 67.5488 374.715 70.1837 374.715 76.3237C374.715 79.2325 373.49 80.8441 371.726 80.8441C369.091 80.8441 367.205 77.6613 366.73 72.5849H366.142V81.5451H366.617C367.012 80.2558 367.52 80.1269 367.955 80.1269C368.704 80.1269 369.486 81.6982 371.766 81.6982C375.271 81.6982 377.552 78.6765 377.552 74.5026C377.552 66.316 368.809 64.3096 368.809 58.4516C368.809 57.114 369.204 55.1479 371.17 55.1479C374.006 55.1479 375.199 58.8787 375.698 63.4071H376.286V54.4389H375.819C375.618 55.301 375.263 55.6959 374.755 55.6959C373.845 55.6959 373.386 54.2858 371.21 54.2858L371.17 54.2938ZM377.503 62.0131V62.1098V62.0293V62.0131Z" fill="white"/>
</g>
<path d="M13.0957 16.5576C13.0957 17.5479 12.9697 18.4502 12.7178 19.2646C12.4717 20.0732 12.0996 20.7705 11.6016 21.3564C11.1035 21.9365 10.4795 22.3848 9.72949 22.7012C8.97949 23.0176 8.10059 23.1758 7.09277 23.1758C6.06738 23.1758 5.17676 23.0176 4.4209 22.7012C3.6709 22.3848 3.04688 21.9336 2.54883 21.3477C2.05664 20.7617 1.6875 20.0615 1.44141 19.2471C1.19531 18.4326 1.07227 17.5303 1.07227 16.54C1.07227 15.2158 1.28906 14.0615 1.72266 13.0771C2.16211 12.0869 2.82715 11.3193 3.71777 10.7744C4.61426 10.2236 5.74512 9.94824 7.11035 9.94824C8.44629 9.94824 9.55664 10.2207 10.4414 10.7656C11.3262 11.3105 11.9883 12.0781 12.4277 13.0684C12.873 14.0527 13.0957 15.2158 13.0957 16.5576ZM3.28711 16.5576C3.28711 17.5479 3.42188 18.4062 3.69141 19.1328C3.96094 19.8535 4.37402 20.4102 4.93066 20.8027C5.49316 21.1895 6.21387 21.3828 7.09277 21.3828C7.97754 21.3828 8.69824 21.1895 9.25488 20.8027C9.81152 20.4102 10.2217 19.8535 10.4854 19.1328C10.749 18.4062 10.8809 17.5479 10.8809 16.5576C10.8809 15.0518 10.5791 13.874 9.97559 13.0244C9.37793 12.1689 8.42285 11.7412 7.11035 11.7412C6.23145 11.7412 5.50781 11.9346 4.93945 12.3213C4.37695 12.708 3.96094 13.2617 3.69141 13.9824C3.42188 14.6973 3.28711 15.5557 3.28711 16.5576ZM23.766 13.2705V23H22.14L21.8588 21.6904H21.7445C21.5394 22.0244 21.2787 22.3027 20.9623 22.5254C20.6459 22.7422 20.2943 22.9033 19.9076 23.0088C19.5209 23.1201 19.1136 23.1758 18.6859 23.1758C17.9535 23.1758 17.3265 23.0527 16.805 22.8066C16.2894 22.5547 15.8939 22.168 15.6185 21.6465C15.3431 21.125 15.2054 20.4512 15.2054 19.625V13.2705H17.2796V19.2383C17.2796 19.9941 17.432 20.5596 17.7367 20.9346C18.0472 21.3096 18.5277 21.4971 19.1781 21.4971C19.805 21.4971 20.3031 21.3682 20.6722 21.1104C21.0414 20.8525 21.3021 20.4717 21.4545 19.9678C21.6127 19.4639 21.6918 18.8457 21.6918 18.1133V13.2705H23.766ZM31.2986 13.0859C31.4626 13.0859 31.6413 13.0947 31.8347 13.1123C32.028 13.1299 32.195 13.1533 32.3357 13.1826L32.1423 15.1162C32.0193 15.0811 31.8669 15.0547 31.6853 15.0371C31.5095 15.0195 31.3513 15.0107 31.2107 15.0107C30.8415 15.0107 30.49 15.0723 30.156 15.1953C29.822 15.3125 29.5261 15.4941 29.2683 15.7402C29.0105 15.9805 28.8083 16.2822 28.6618 16.6455C28.5154 17.0088 28.4421 17.4307 28.4421 17.9111V23H26.3679V13.2705H27.9851L28.2663 14.9844H28.363C28.5564 14.6387 28.7966 14.3223 29.0837 14.0352C29.3708 13.748 29.6989 13.5195 30.0681 13.3496C30.4431 13.1738 30.8532 13.0859 31.2986 13.0859ZM42.0395 10.1504C43.6977 10.1504 44.9077 10.4902 45.6694 11.1699C46.4311 11.8496 46.812 12.8018 46.812 14.0264C46.812 14.583 46.7241 15.1133 46.5483 15.6172C46.3784 16.1152 46.0971 16.5576 45.7045 16.9443C45.312 17.3252 44.7934 17.627 44.1489 17.8496C43.5102 18.0723 42.7221 18.1836 41.7846 18.1836H40.4135V23H38.3041V10.1504H42.0395ZM41.8989 11.8994H40.4135V16.4258H41.5649C42.227 16.4258 42.7895 16.3496 43.2524 16.1973C43.7153 16.0391 44.0668 15.79 44.3071 15.4502C44.5473 15.1104 44.6674 14.6621 44.6674 14.1055C44.6674 13.3613 44.4418 12.8076 43.9907 12.4443C43.5454 12.0811 42.8481 11.8994 41.8989 11.8994ZM52.6219 13.0859C53.8523 13.0859 54.7811 13.3584 55.408 13.9033C56.0408 14.4482 56.3572 15.2979 56.3572 16.4521V23H54.8895L54.4939 21.6201H54.4236C54.1482 21.9717 53.8641 22.2617 53.5711 22.4902C53.2781 22.7188 52.9383 22.8887 52.5516 23C52.1707 23.1172 51.7049 23.1758 51.1541 23.1758C50.574 23.1758 50.0555 23.0703 49.5984 22.8594C49.1414 22.6426 48.7811 22.3145 48.5174 21.875C48.2537 21.4355 48.1219 20.8789 48.1219 20.2051C48.1219 19.2031 48.4939 18.4502 49.2381 17.9463C49.9881 17.4424 51.1189 17.1641 52.6307 17.1113L54.3182 17.0498V16.54C54.3182 15.8662 54.16 15.3857 53.8436 15.0986C53.533 14.8115 53.0936 14.668 52.5252 14.668C52.0389 14.668 51.5672 14.7383 51.1102 14.8789C50.6531 15.0195 50.2078 15.1924 49.7742 15.3975L49.1063 13.9385C49.5809 13.6865 50.1199 13.4814 50.7234 13.3232C51.3328 13.165 51.9656 13.0859 52.6219 13.0859ZM54.3094 18.3506L53.0525 18.3945C52.0213 18.4297 51.2977 18.6055 50.8816 18.9219C50.4656 19.2383 50.2576 19.6719 50.2576 20.2227C50.2576 20.7031 50.4012 21.0547 50.6883 21.2773C50.9754 21.4941 51.3533 21.6025 51.8221 21.6025C52.5369 21.6025 53.1287 21.4004 53.5975 20.9961C54.0721 20.5859 54.3094 19.9854 54.3094 19.1943V18.3506ZM63.8195 13.0859C63.9836 13.0859 64.1623 13.0947 64.3556 13.1123C64.549 13.1299 64.716 13.1533 64.8566 13.1826L64.6632 15.1162C64.5402 15.0811 64.3879 15.0547 64.2062 15.0371C64.0304 15.0195 63.8722 15.0107 63.7316 15.0107C63.3625 15.0107 63.0109 15.0723 62.6769 15.1953C62.3429 15.3125 62.047 15.4941 61.7892 15.7402C61.5314 15.9805 61.3293 16.2822 61.1828 16.6455C61.0363 17.0088 60.963 17.4307 60.963 17.9111V23H58.8888V13.2705H60.506L60.7873 14.9844H60.8839C61.0773 14.6387 61.3175 14.3223 61.6046 14.0352C61.8918 13.748 62.2199 13.5195 62.589 13.3496C62.964 13.1738 63.3742 13.0859 63.8195 13.0859ZM69.9195 21.5059C70.189 21.5059 70.4556 21.4824 70.7193 21.4355C70.9829 21.3828 71.2232 21.3213 71.44 21.251V22.8154C71.2114 22.915 70.9156 23 70.5523 23.0703C70.189 23.1406 69.8111 23.1758 69.4185 23.1758C68.8677 23.1758 68.3726 23.085 67.9331 22.9033C67.4937 22.7158 67.145 22.3965 66.8872 21.9453C66.6294 21.4941 66.5005 20.8701 66.5005 20.0732V14.8438H65.1734V13.9209L66.5972 13.1914L67.2739 11.1084H68.5747V13.2705H71.3609V14.8438H68.5747V20.0469C68.5747 20.5391 68.6978 20.9053 68.9439 21.1455C69.19 21.3857 69.5152 21.5059 69.9195 21.5059ZM78.1288 13.0859C79.2245 13.0859 80.077 13.3701 80.6864 13.9385C81.3016 14.501 81.6093 15.4062 81.6093 16.6543V23H79.5438V17.041C79.5438 16.2852 79.3886 15.7197 79.078 15.3447C78.7675 14.9639 78.287 14.7734 77.6366 14.7734C76.6932 14.7734 76.037 15.0635 75.6679 15.6436C75.3046 16.2236 75.1229 17.0645 75.1229 18.166V23H73.0575V13.2705H74.6659L74.9559 14.5889H75.0702C75.2811 14.249 75.5419 13.9707 75.8524 13.7539C76.1688 13.5312 76.5204 13.3643 76.9071 13.2529C77.2997 13.1416 77.7069 13.0859 78.1288 13.0859ZM88.0168 13.0859C88.884 13.0859 89.6282 13.2646 90.2493 13.6221C90.8704 13.9795 91.3479 14.4863 91.6819 15.1426C92.0159 15.7988 92.1829 16.584 92.1829 17.498V18.6055H85.6877C85.7112 19.5488 85.9631 20.2754 86.4436 20.7852C86.9299 21.2949 87.6096 21.5498 88.4827 21.5498C89.1038 21.5498 89.6604 21.4912 90.1526 21.374C90.6506 21.251 91.1633 21.0723 91.6907 20.8379V22.5166C91.2043 22.7451 90.7092 22.9121 90.2053 23.0176C89.7014 23.123 89.0979 23.1758 88.3948 23.1758C87.4397 23.1758 86.5989 22.9912 85.8723 22.6221C85.1516 22.2471 84.5862 21.6904 84.176 20.9521C83.7717 20.2139 83.5696 19.2969 83.5696 18.2012C83.5696 17.1113 83.7541 16.1855 84.1233 15.4238C84.4924 14.6621 85.011 14.082 85.6789 13.6836C86.3469 13.2852 87.1262 13.0859 88.0168 13.0859ZM88.0168 14.6416C87.3664 14.6416 86.8391 14.8525 86.4348 15.2744C86.0364 15.6963 85.802 16.3145 85.7317 17.1289H90.1614C90.1555 16.6426 90.0735 16.2119 89.9153 15.8369C89.7629 15.4619 89.5286 15.1689 89.2122 14.958C88.9016 14.7471 88.5032 14.6416 88.0168 14.6416ZM99.0826 13.0859C99.2467 13.0859 99.4254 13.0947 99.6188 13.1123C99.8121 13.1299 99.9791 13.1533 100.12 13.1826L99.9264 15.1162C99.8033 15.0811 99.651 15.0547 99.4693 15.0371C99.2936 15.0195 99.1354 15.0107 98.9947 15.0107C98.6256 15.0107 98.274 15.0723 97.94 15.1953C97.6061 15.3125 97.3102 15.4941 97.0523 15.7402C96.7945 15.9805 96.5924 16.2822 96.4459 16.6455C96.2994 17.0088 96.2262 17.4307 96.2262 17.9111V23H94.152V13.2705H95.7691L96.0504 14.9844H96.1471C96.3404 14.6387 96.5807 14.3223 96.8678 14.0352C97.1549 13.748 97.483 13.5195 97.8521 13.3496C98.2271 13.1738 98.6373 13.0859 99.0826 13.0859ZM108.101 20.2227C108.101 20.8613 107.945 21.4004 107.635 21.8398C107.324 22.2793 106.87 22.6133 106.272 22.8418C105.681 23.0645 104.954 23.1758 104.093 23.1758C103.413 23.1758 102.827 23.126 102.335 23.0264C101.849 22.9326 101.389 22.7861 100.955 22.5869V20.8027C101.418 21.0195 101.936 21.207 102.511 21.3652C103.091 21.5234 103.639 21.6025 104.154 21.6025C104.834 21.6025 105.323 21.4971 105.622 21.2861C105.921 21.0693 106.07 20.7822 106.07 20.4248C106.07 20.2139 106.009 20.0264 105.886 19.8623C105.769 19.6924 105.546 19.5195 105.218 19.3438C104.895 19.1621 104.421 18.9453 103.794 18.6934C103.179 18.4473 102.66 18.2012 102.238 17.9551C101.816 17.709 101.497 17.4131 101.28 17.0674C101.063 16.7158 100.955 16.2676 100.955 15.7227C100.955 14.8613 101.295 14.208 101.975 13.7627C102.66 13.3115 103.565 13.0859 104.69 13.0859C105.288 13.0859 105.851 13.1475 106.378 13.2705C106.911 13.3877 107.433 13.5605 107.942 13.7891L107.292 15.3447C106.853 15.1514 106.41 14.9932 105.965 14.8701C105.525 14.7412 105.077 14.6768 104.62 14.6768C104.087 14.6768 103.68 14.7588 103.398 14.9229C103.123 15.0869 102.985 15.3213 102.985 15.626C102.985 15.8545 103.053 16.0479 103.187 16.2061C103.322 16.3643 103.554 16.5225 103.882 16.6807C104.216 16.8389 104.679 17.0352 105.27 17.2695C105.851 17.4922 106.352 17.7266 106.773 17.9727C107.201 18.2129 107.529 18.5088 107.758 18.8604C107.986 19.2119 108.101 19.666 108.101 20.2227ZM112.038 9.32422V12.7607C112.038 13.1182 112.027 13.4668 112.003 13.8066C111.986 14.1465 111.965 14.4102 111.942 14.5977H112.056C112.261 14.2578 112.513 13.9795 112.812 13.7627C113.111 13.54 113.445 13.373 113.814 13.2617C114.189 13.1504 114.587 13.0947 115.009 13.0947C115.753 13.0947 116.386 13.2207 116.908 13.4727C117.429 13.7188 117.827 14.1025 118.103 14.624C118.384 15.1455 118.525 15.8223 118.525 16.6543V23H116.459V17.041C116.459 16.2852 116.304 15.7197 115.993 15.3447C115.683 14.9639 115.202 14.7734 114.552 14.7734C113.925 14.7734 113.427 14.9053 113.058 15.1689C112.695 15.4268 112.434 15.8105 112.276 16.3203C112.118 16.8242 112.038 17.4395 112.038 18.166V23H109.973V9.32422H112.038ZM123.122 13.2705V23H121.056V13.2705H123.122ZM122.102 9.54395C122.419 9.54395 122.691 9.62891 122.92 9.79883C123.154 9.96875 123.271 10.2617 123.271 10.6777C123.271 11.0879 123.154 11.3809 122.92 11.5566C122.691 11.7266 122.419 11.8115 122.102 11.8115C121.774 11.8115 121.496 11.7266 121.267 11.5566C121.045 11.3809 120.933 11.0879 120.933 10.6777C120.933 10.2617 121.045 9.96875 121.267 9.79883C121.496 9.62891 121.774 9.54395 122.102 9.54395ZM130.716 13.0859C131.87 13.0859 132.796 13.5078 133.493 14.3516C134.196 15.1953 134.548 16.4492 134.548 18.1133C134.548 19.2148 134.384 20.1436 134.056 20.8994C133.733 21.6494 133.279 22.2178 132.693 22.6045C132.113 22.9854 131.437 23.1758 130.663 23.1758C130.171 23.1758 129.743 23.1113 129.38 22.9824C129.017 22.8535 128.706 22.6865 128.448 22.4814C128.19 22.2705 127.974 22.042 127.798 21.7959H127.675C127.704 22.0303 127.731 22.291 127.754 22.5781C127.783 22.8594 127.798 23.1172 127.798 23.3516V27.3154H125.724V13.2705H127.411L127.701 14.6152H127.798C127.98 14.3398 128.199 14.085 128.457 13.8506C128.721 13.6162 129.037 13.4316 129.406 13.2969C129.781 13.1562 130.218 13.0859 130.716 13.0859ZM130.162 14.7734C129.594 14.7734 129.137 14.8877 128.791 15.1162C128.451 15.3389 128.202 15.6758 128.044 16.127C127.892 16.5781 127.81 17.1436 127.798 17.8232V18.1133C127.798 18.834 127.871 19.4463 128.018 19.9502C128.17 20.4482 128.419 20.8291 128.765 21.0928C129.116 21.3506 129.591 21.4795 130.189 21.4795C130.692 21.4795 131.108 21.3418 131.437 21.0664C131.771 20.791 132.02 20.3984 132.184 19.8887C132.348 19.3789 132.43 18.7783 132.43 18.0869C132.43 17.0381 132.242 16.2236 131.867 15.6436C131.498 15.0635 130.93 14.7734 130.162 14.7734Z" fill="#FF0047"/>
<defs>
<clipPath id="clip0_59_5">
<rect width="70.3999" height="19.2" fill="white" transform="translate(0 58.4)"/>
</clipPath>
<clipPath id="clip1_59_5">
<rect width="79.5428" height="19.2" fill="white" transform="translate(118.4 58.4)"/>
</clipPath>
<clipPath id="clip2_59_5">
<rect width="46.6285" height="22.8571" fill="white" transform="translate(245.943 56.5714)"/>
</clipPath>
<clipPath id="clip3_59_5">
<rect width="52.1142" height="28.3428" fill="white" transform="translate(340.571 53.8286)"/>
</clipPath>
</defs>
</svg>
