<svg width="100" height="22" viewBox="0 0 100 22" fill="none" xmlns="http://www.w3.org/2000/svg">
<path d="M2.16016 0.902344C3.15365 0.938802 4.39323 0.966146 5.87891 0.984375C7.36458 1.0026 9.11003 1.01172 11.1152 1.01172C13.1204 1.01172 14.8659 1.0026 16.3516 0.984375C17.8464 0.966146 19.0951 0.938802 20.0977 0.902344C20.1523 1.29427 20.2207 1.67253 20.3027 2.03711C20.3848 2.39258 20.5215 2.78906 20.7129 3.22656L21.123 4.15625L22.1211 6.09766C22.0573 6.24349 21.8978 6.36654 21.6426 6.4668C21.3327 5.89258 20.9544 5.3457 20.5078 4.82617C20.0612 4.30664 19.4915 3.83724 18.7988 3.41797C18.1152 2.9987 17.2767 2.64779 16.2832 2.36523C15.2988 2.08268 14.1094 1.89128 12.7148 1.79102C12.6693 2.93034 12.6328 4.22005 12.6055 5.66016C12.5872 7.09115 12.5781 8.6862 12.5781 10.4453C12.5781 12.2135 12.5872 13.8177 12.6055 15.2578C12.6328 16.6979 12.6693 17.9876 12.7148 19.127C12.724 19.3457 12.8105 19.5326 12.9746 19.6875C13.1387 19.8333 13.362 19.9564 13.6445 20.0566C13.9362 20.1569 14.2689 20.2389 14.6426 20.3027C15.0254 20.3574 15.4355 20.403 15.873 20.4395C15.9095 20.5944 15.9277 20.7174 15.9277 20.8086C15.9277 20.8906 15.9095 20.9818 15.873 21.082C14.3418 21.0273 12.7559 21 11.1152 21C9.48372 21 7.89779 21.0273 6.35742 21.082C6.32096 20.9818 6.30273 20.8906 6.30273 20.8086C6.30273 20.7174 6.32096 20.5944 6.35742 20.4395L7.01367 20.3711C7.25065 20.3438 7.51497 20.3073 7.80664 20.2617C8.09831 20.207 8.36719 20.1341 8.61328 20.043C8.86849 19.9518 9.08268 19.8379 9.25586 19.7012C9.42904 19.5645 9.51562 19.3958 9.51562 19.1953V19.127C9.5612 17.459 9.59766 15.9049 9.625 14.4648C9.65234 13.0247 9.66602 11.6849 9.66602 10.4453C9.66602 9.21484 9.65234 7.88411 9.625 6.45312C9.59766 5.01302 9.5612 3.45898 9.51562 1.79102C8.20312 1.86393 7.05924 2.04167 6.08398 2.32422C5.11784 2.59766 4.2793 2.94401 3.56836 3.36328C2.85742 3.77344 2.26497 4.2474 1.79102 4.78516C1.31706 5.3138 0.92513 5.87435 0.615234 6.4668C0.360026 6.36654 0.200521 6.24349 0.136719 6.09766L0.751953 4.93555L1.03906 4.34766C1.15755 4.10156 1.27604 3.85091 1.39453 3.5957C1.51302 3.34049 1.6224 3.07617 1.72266 2.80273C1.83203 2.52018 1.92318 2.22396 1.99609 1.91406C2.06901 1.59505 2.1237 1.25781 2.16016 0.902344Z" fill="#E63E6D"/>
<path d="M22.9434 8.08008C24.2559 8.12695 25.2754 8.15039 26.002 8.15039C26.7285 8.15039 27.748 8.12695 29.0605 8.08008C29.084 8.17383 29.0957 8.23828 29.0957 8.27344C29.0957 8.33789 29.084 8.41113 29.0605 8.49316C28.791 8.5166 28.5713 8.54297 28.4014 8.57227C28.2373 8.5957 28.0322 8.63672 27.7861 8.69531C27.5459 8.75391 27.3613 8.83887 27.2324 8.9502C27.1035 9.05566 27.0361 9.18457 27.0303 9.33691C26.9541 11.3291 26.916 13.1836 26.916 14.9004C26.916 16.1543 26.9482 17.7861 27.0127 19.7959C27.0186 19.9482 27.0859 20.0801 27.2148 20.1914C27.3438 20.2969 27.5283 20.3789 27.7686 20.4375C28.0146 20.4961 28.2197 20.54 28.3838 20.5693C28.5537 20.5928 28.7734 20.6162 29.043 20.6396C29.0664 20.71 29.0781 20.7891 29.0781 20.877C29.0781 20.9238 29.0664 20.9824 29.043 21.0527C28.0469 21.0176 27.0273 21 25.9844 21C24.9297 21 23.9102 21.0176 22.9258 21.0527C22.9023 20.9824 22.8906 20.9238 22.8906 20.877C22.8906 20.7773 22.9023 20.6982 22.9258 20.6396C23.1016 20.6221 23.2422 20.6074 23.3477 20.5957C23.4531 20.584 23.5967 20.5635 23.7783 20.5342C23.9658 20.5049 24.1152 20.4727 24.2266 20.4375C24.3438 20.3965 24.4639 20.3467 24.5869 20.2881C24.71 20.2295 24.8008 20.1592 24.8594 20.0771C24.9238 19.9951 24.9561 19.9014 24.9561 19.7959C25.0264 17.9619 25.0615 16.1133 25.0615 14.25C25.0615 12.3516 25.0322 10.7139 24.9736 9.33691C24.9678 9.18457 24.9004 9.05566 24.7715 8.9502C24.6426 8.83887 24.4551 8.75391 24.209 8.69531C23.9688 8.63672 23.7637 8.5957 23.5938 8.57227C23.4297 8.54297 23.2129 8.5166 22.9434 8.49316C22.9199 8.3877 22.9082 8.31445 22.9082 8.27344C22.9082 8.21484 22.9199 8.15039 22.9434 8.08008ZM37.5596 7.79004C38.0225 7.79004 38.4824 7.82227 38.9395 7.88672C39.4023 7.94531 39.8447 8.01855 40.2666 8.10645C40.6943 8.18848 41.0986 8.27051 41.4795 8.35254C41.8604 8.43457 42.2031 8.49316 42.5078 8.52832C42.4375 8.73926 42.4023 9.11133 42.4023 9.64453C42.4023 10.6816 42.5576 11.5811 42.8682 12.3428C42.833 12.4482 42.7246 12.5127 42.543 12.5361L42.165 11.7275C41.9775 11.3232 41.752 10.9248 41.4883 10.5322C41.2246 10.1338 40.9082 9.7793 40.5391 9.46875C40.1699 9.15234 39.7393 8.89746 39.2471 8.7041C38.7607 8.51074 38.1982 8.41406 37.5596 8.41406C37.0088 8.41406 36.5195 8.50488 36.0918 8.68652C35.6641 8.86816 35.2891 9.11426 34.9668 9.4248C34.6445 9.72949 34.3721 10.0869 34.1494 10.4971C33.9268 10.9014 33.7451 11.332 33.6045 11.7891C33.4697 12.2461 33.3701 12.7148 33.3057 13.1953C33.2471 13.6758 33.2178 14.1416 33.2178 14.5928C33.2178 15.3428 33.3145 16.0605 33.5078 16.7461C33.707 17.4316 34.0146 18.0381 34.4307 18.5654C34.8467 19.0869 35.374 19.5029 36.0127 19.8135C36.6572 20.124 37.4248 20.2793 38.3154 20.2793C40.0205 20.2793 41.3096 19.7461 42.1826 18.6797C42.2764 18.6797 42.3525 18.7061 42.4111 18.7588C42.4756 18.8115 42.5078 18.876 42.5078 18.9521C42.2266 19.3682 41.8838 19.7285 41.4795 20.0332C41.0811 20.3379 40.6562 20.5898 40.2051 20.7891C39.7539 20.9824 39.2969 21.126 38.834 21.2197C38.377 21.3135 37.9521 21.3604 37.5596 21.3604C37.1318 21.3604 36.6689 21.3135 36.1709 21.2197C35.6787 21.1318 35.1836 20.9824 34.6855 20.7715C34.1934 20.5605 33.7188 20.2852 33.2617 19.9453C32.8105 19.5996 32.4092 19.1777 32.0576 18.6797C31.7061 18.1758 31.4248 17.5869 31.2139 16.9131C31.0029 16.2393 30.8975 15.4658 30.8975 14.5928C30.8975 13.7139 31.0029 12.9375 31.2139 12.2637C31.4248 11.584 31.7061 10.9922 32.0576 10.4883C32.415 9.98438 32.8223 9.5625 33.2793 9.22266C33.7422 8.87695 34.2197 8.59863 34.7119 8.3877C35.2041 8.1709 35.6963 8.01855 36.1885 7.93066C36.6807 7.83691 37.1377 7.79004 37.5596 7.79004ZM44.0547 8.08008C45.3672 8.12695 46.3867 8.15039 47.1133 8.15039C47.8398 8.15039 48.8594 8.12695 50.1719 8.08008C50.1953 8.17383 50.207 8.23828 50.207 8.27344C50.207 8.33789 50.1953 8.41113 50.1719 8.49316C49.9023 8.5166 49.6826 8.54297 49.5127 8.57227C49.3486 8.5957 49.1436 8.63672 48.8975 8.69531C48.6572 8.75391 48.4727 8.83887 48.3438 8.9502C48.2148 9.05566 48.1475 9.18457 48.1416 9.33691C48.0654 11.0713 48.0273 12.6738 48.0273 14.1445H48.2822L53.2656 9.33691C53.3418 9.22559 53.3799 9.14062 53.3799 9.08203C53.3799 8.9707 53.3477 8.87988 53.2832 8.80957C53.2246 8.7334 53.1133 8.67773 52.9492 8.64258C52.791 8.60156 52.6299 8.57227 52.4658 8.55469C52.3076 8.53711 52.0703 8.5166 51.7539 8.49316C51.7305 8.3877 51.7188 8.31445 51.7188 8.27344C51.7188 8.23828 51.7305 8.17383 51.7539 8.08008C53.0781 8.12695 53.9482 8.15039 54.3643 8.15039C54.6514 8.15039 55.457 8.12695 56.7812 8.08008C56.8047 8.17383 56.8164 8.23828 56.8164 8.27344C56.8164 8.31445 56.8047 8.3877 56.7812 8.49316C56.5293 8.5166 56.3271 8.54004 56.1748 8.56348C56.0283 8.58691 55.8379 8.62793 55.6035 8.68652C55.375 8.73926 55.1553 8.82129 54.9443 8.93262C54.7393 9.03809 54.54 9.17285 54.3467 9.33691L49.8115 13.6523L55.3926 19.3301C56.3301 20.168 57.1533 20.6045 57.8623 20.6396C57.8857 20.7334 57.8975 20.8125 57.8975 20.877C57.8975 20.9473 57.8857 21.0117 57.8623 21.0703C57.0127 21.0234 56.0752 21 55.0498 21C54.1299 21 53.0195 21.0234 51.7188 21.0703C51.6953 21 51.6836 20.9297 51.6836 20.8594C51.6836 20.7832 51.6953 20.71 51.7188 20.6396C52.2871 20.6221 52.6621 20.5723 52.8438 20.4902C53.0312 20.4023 53.125 20.2529 53.125 20.042C53.125 19.9658 53.1045 19.8926 53.0635 19.8223C53.0225 19.752 52.9492 19.6611 52.8438 19.5498C52.7441 19.4326 52.6826 19.3594 52.6592 19.3301L48.3701 14.8828L48.0273 14.9004C48.0273 16.1543 48.0596 17.7861 48.124 19.7959C48.1299 19.9482 48.1973 20.0801 48.3262 20.1914C48.4551 20.2969 48.6396 20.3789 48.8799 20.4375C49.126 20.4961 49.3311 20.54 49.4951 20.5693C49.665 20.5928 49.8848 20.6162 50.1543 20.6396C50.1777 20.71 50.1895 20.7891 50.1895 20.877C50.1895 20.9238 50.1777 20.9824 50.1543 21.0527C49.1582 21.0176 48.1387 21 47.0957 21C46.041 21 45.0215 21.0176 44.0371 21.0527C44.0137 20.9824 44.002 20.9238 44.002 20.877C44.002 20.7773 44.0137 20.6982 44.0371 20.6396C44.2129 20.6221 44.3535 20.6074 44.459 20.5957C44.5645 20.584 44.708 20.5635 44.8896 20.5342C45.0771 20.5049 45.2266 20.4727 45.3379 20.4375C45.4551 20.3965 45.5752 20.3467 45.6982 20.2881C45.8213 20.2295 45.9121 20.1592 45.9707 20.0771C46.0352 19.9951 46.0674 19.9014 46.0674 19.7959C46.1377 17.9619 46.1729 16.1133 46.1729 14.25C46.1729 12.3516 46.1436 10.7139 46.085 9.33691C46.0791 9.18457 46.0117 9.05566 45.8828 8.9502C45.7539 8.83887 45.5664 8.75391 45.3203 8.69531C45.0801 8.63672 44.875 8.5957 44.7051 8.57227C44.541 8.54297 44.3242 8.5166 44.0547 8.49316C44.0312 8.3877 44.0195 8.31445 44.0195 8.27344C44.0195 8.21484 44.0312 8.15039 44.0547 8.08008ZM58.4336 8.08008C59.7461 8.12695 60.7715 8.15039 61.5098 8.15039C66.5371 8.12109 69.3203 8.09766 69.8594 8.08008C69.9355 8.66602 70.085 9.22266 70.3076 9.75C70.5303 10.2715 70.8145 10.8281 71.1602 11.4199C71.1133 11.5195 71.0107 11.5986 70.8525 11.6572C70.6416 11.2588 70.3867 10.9043 70.0879 10.5938C69.7891 10.2832 69.4111 9.99023 68.9541 9.71484C68.5029 9.43945 67.9375 9.21387 67.2578 9.03809C66.584 8.8623 65.8135 8.74512 64.9463 8.68652H62.5205C62.4443 11.165 62.4062 13.0312 62.4062 14.2852H64.9111C65.0811 14.2852 65.2393 14.2734 65.3857 14.25C65.5381 14.2207 65.6787 14.1738 65.8076 14.1094C65.9365 14.0391 66.0508 13.9746 66.1504 13.916C66.2559 13.8516 66.3613 13.7578 66.4668 13.6348C66.5723 13.5059 66.6602 13.4004 66.7305 13.3184C66.8008 13.2305 66.8857 13.0986 66.9854 12.9229C67.085 12.7471 67.1611 12.6094 67.2139 12.5098C67.2666 12.4102 67.3457 12.2549 67.4512 12.0439C67.5625 11.833 67.6475 11.6748 67.7061 11.5693C67.8877 11.6396 67.999 11.7158 68.04 11.7979C67.7939 12.2314 67.5859 12.7119 67.416 13.2393C67.2461 13.7666 67.1611 14.2061 67.1611 14.5576C67.1611 15.3896 67.4541 16.3066 68.04 17.3086C67.9932 17.4023 67.8818 17.4814 67.7061 17.5459C67.6416 17.4287 67.5508 17.2617 67.4336 17.0449C67.3223 16.8223 67.2344 16.6523 67.1699 16.5352C67.1055 16.418 67.0176 16.2686 66.9062 16.0869C66.7949 15.9053 66.6953 15.7646 66.6074 15.665C66.5254 15.5654 66.417 15.4541 66.2822 15.3311C66.1533 15.208 66.0244 15.1172 65.8955 15.0586C65.7666 14.9941 65.6172 14.9414 65.4473 14.9004C65.2832 14.8535 65.1045 14.8301 64.9111 14.8301H62.4062C62.4062 15.7617 62.4385 17.6396 62.5029 20.4639H65.3066C66.1738 20.4053 66.9443 20.2881 67.6182 20.1123C68.2979 19.9365 68.8633 19.7109 69.3145 19.4355C69.7715 19.1602 70.1494 18.8672 70.4482 18.5566C70.7471 18.2461 71.002 17.8916 71.2129 17.4932C71.3711 17.5518 71.4736 17.6279 71.5205 17.7217C71.4912 17.7803 71.415 17.9209 71.292 18.1436C71.1689 18.3662 71.0869 18.5186 71.0459 18.6006C71.0049 18.6768 70.9346 18.8145 70.835 19.0137C70.7412 19.207 70.6709 19.3652 70.624 19.4883C70.5771 19.6055 70.5215 19.7549 70.457 19.9365C70.3984 20.1182 70.3486 20.2969 70.3076 20.4727C70.2725 20.6426 70.2432 20.8184 70.2197 21H62.5029C60.915 21 59.5527 21.0176 58.416 21.0527C58.3926 20.9824 58.3809 20.9238 58.3809 20.877C58.3809 20.8359 58.3926 20.7568 58.416 20.6396C58.6855 20.6162 58.9023 20.5928 59.0664 20.5693C59.2363 20.54 59.4414 20.4961 59.6816 20.4375C59.9277 20.3789 60.1152 20.2969 60.2441 20.1914C60.373 20.0801 60.4404 19.9482 60.4463 19.7959C60.5166 17.9619 60.5518 16.1133 60.5518 14.25C60.5518 12.3516 60.5225 10.7139 60.4639 9.33691C60.458 9.18457 60.3906 9.05566 60.2617 8.9502C60.1328 8.83887 59.9453 8.75391 59.6992 8.69531C59.459 8.63672 59.2539 8.5957 59.084 8.57227C58.9199 8.54297 58.7031 8.5166 58.4336 8.49316C58.4102 8.3877 58.3984 8.31445 58.3984 8.27344C58.3984 8.23828 58.4102 8.17383 58.4336 8.08008ZM73.2695 8.08008C73.9082 8.10352 74.7051 8.12109 75.6602 8.13281C76.6152 8.14453 77.7373 8.15039 79.0264 8.15039C80.3154 8.15039 81.4375 8.14453 82.3926 8.13281C83.3535 8.12109 84.1562 8.10352 84.8008 8.08008C84.8359 8.33203 84.8799 8.5752 84.9326 8.80957C84.9854 9.03809 85.0732 9.29297 85.1963 9.57422L85.46 10.1719L86.1016 11.4199C86.0605 11.5137 85.958 11.5928 85.7939 11.6572C85.5947 11.2881 85.3516 10.9365 85.0645 10.6025C84.7773 10.2686 84.4111 9.9668 83.9658 9.69727C83.5264 9.42773 82.9873 9.20215 82.3486 9.02051C81.7158 8.83887 80.9512 8.71582 80.0547 8.65137C80.0254 9.38379 80.002 10.2129 79.9844 11.1387C79.9727 12.0586 79.9668 13.084 79.9668 14.2148C79.9668 15.3516 79.9727 16.3828 79.9844 17.3086C80.002 18.2344 80.0254 19.0635 80.0547 19.7959C80.0605 19.9365 80.1162 20.0566 80.2217 20.1562C80.3271 20.25 80.4707 20.3291 80.6523 20.3936C80.8398 20.458 81.0537 20.5107 81.2939 20.5518C81.54 20.5869 81.8037 20.6162 82.085 20.6396C82.1084 20.7393 82.1201 20.8184 82.1201 20.877C82.1201 20.9297 82.1084 20.9883 82.085 21.0527C81.1006 21.0176 80.0811 21 79.0264 21C77.9775 21 76.958 21.0176 75.9678 21.0527C75.9443 20.9883 75.9326 20.9297 75.9326 20.877C75.9326 20.8184 75.9443 20.7393 75.9678 20.6396L76.3896 20.5957C76.542 20.5781 76.7119 20.5547 76.8994 20.5254C77.0869 20.4902 77.2598 20.4434 77.418 20.3848C77.582 20.3262 77.7197 20.2529 77.8311 20.165C77.9424 20.0771 77.998 19.9688 77.998 19.8398V19.7959C78.0273 18.7236 78.0508 17.7246 78.0684 16.7988C78.0859 15.873 78.0947 15.0117 78.0947 14.2148C78.0947 13.4238 78.0859 12.5684 78.0684 11.6484C78.0508 10.7227 78.0273 9.72363 77.998 8.65137C77.1543 8.69824 76.4189 8.8125 75.792 8.99414C75.1709 9.16992 74.6318 9.39258 74.1748 9.66211C73.7178 9.92578 73.3369 10.2305 73.0322 10.5762C72.7275 10.916 72.4756 11.2764 72.2764 11.6572C72.1123 11.5928 72.0098 11.5137 71.9688 11.4199L72.3643 10.6729L72.5488 10.2949C72.625 10.1367 72.7012 9.97559 72.7773 9.81152C72.8535 9.64746 72.9238 9.47754 72.9883 9.30176C73.0586 9.12012 73.1172 8.92969 73.1641 8.73047C73.2109 8.52539 73.2461 8.30859 73.2695 8.08008ZM86.2246 8.08008C87.5488 8.12695 88.6123 8.15039 89.415 8.15039C90.5107 8.15039 91.501 8.12695 92.3857 8.08008C92.4092 8.17383 92.4209 8.23828 92.4209 8.27344C92.4209 8.33789 92.4092 8.41113 92.3857 8.49316C91.7002 8.52246 91.1963 8.58398 90.874 8.67773C90.5576 8.77148 90.3994 8.92383 90.3994 9.13477C90.3994 9.21094 90.4492 9.34277 90.5488 9.53027L93.2471 14.373H93.3174L96.2705 9.45996C96.3408 9.34277 96.376 9.22266 96.376 9.09961C96.376 8.91797 96.2588 8.78613 96.0244 8.7041C95.7959 8.61621 95.4502 8.5459 94.9873 8.49316C94.9639 8.36426 94.9521 8.28516 94.9521 8.25586C94.9521 8.20898 94.9639 8.15039 94.9873 8.08008C95.7432 8.11523 96.4287 8.13281 97.0439 8.13281C97.7061 8.13281 98.3711 8.11523 99.0391 8.08008C99.0625 8.15039 99.0742 8.20898 99.0742 8.25586C99.0742 8.34961 99.0625 8.42871 99.0391 8.49316C98.6113 8.53418 98.251 8.62207 97.958 8.75684C97.665 8.8916 97.4131 9.12598 97.2021 9.45996L93.5547 15.3486C93.5547 16.6143 93.584 18.0967 93.6426 19.7959C93.6484 19.9482 93.7158 20.0801 93.8447 20.1914C93.9736 20.2969 94.1582 20.3789 94.3984 20.4375C94.6445 20.4961 94.8496 20.54 95.0137 20.5693C95.1836 20.5928 95.4033 20.6162 95.6729 20.6396C95.6963 20.71 95.708 20.7891 95.708 20.877C95.708 20.9238 95.6963 20.9824 95.6729 21.0527C94.6885 21.0176 93.6689 21 92.6143 21C91.5654 21 90.5459 21.0176 89.5557 21.0527C89.5322 20.9824 89.5205 20.9238 89.5205 20.877C89.5205 20.7773 89.5322 20.6982 89.5557 20.6396C89.8252 20.6162 90.042 20.5928 90.2061 20.5693C90.376 20.54 90.5811 20.4961 90.8213 20.4375C91.0674 20.3789 91.2549 20.2969 91.3838 20.1914C91.5127 20.0801 91.5801 19.9482 91.5859 19.7959C91.6445 18.3252 91.6826 16.8428 91.7002 15.3486L88.2637 9.33691C88.0352 9.0498 87.7539 8.84766 87.4199 8.73047C87.0859 8.61328 86.6875 8.53418 86.2246 8.49316C86.2012 8.3877 86.1895 8.31445 86.1895 8.27344C86.1895 8.21484 86.2012 8.15039 86.2246 8.08008Z" fill="black"/>
</svg>
